<mxfile host="Electron" agent="Mozilla/5.0 (Windows NT 10.0; Win64; x64) AppleWebKit/537.36 (KHTML, like Gecko) draw.io/24.7.17 Chrome/128.0.6613.36 Electron/32.0.1 Safari/537.36" version="24.7.17">
  <diagram id="C5RBs43oDa-KdzZeNtuy" name="Page-1">
    <mxGraphModel dx="2514" dy="984" grid="1" gridSize="10" guides="1" tooltips="1" connect="1" arrows="1" fold="1" page="1" pageScale="1" pageWidth="827" pageHeight="1169" math="0" shadow="0">
      <root>
        <mxCell id="WIyWlLk6GJQsqaUBKTNV-0" />
        <mxCell id="WIyWlLk6GJQsqaUBKTNV-1" parent="WIyWlLk6GJQsqaUBKTNV-0" />
        <mxCell id="zkfFHV4jXpPFQw0GAbJ--0" value="LimitedArea" style="swimlane;fontStyle=2;align=center;verticalAlign=top;childLayout=stackLayout;horizontal=1;startSize=26;horizontalStack=0;resizeParent=1;resizeLast=0;collapsible=1;marginBottom=0;rounded=0;shadow=0;strokeWidth=1;" parent="WIyWlLk6GJQsqaUBKTNV-1" vertex="1">
          <mxGeometry x="400" y="270" width="160" height="50" as="geometry">
            <mxRectangle x="110" y="120" width="160" height="26" as="alternateBounds" />
          </mxGeometry>
        </mxCell>
        <mxCell id="DFCHfAah13juMa5k8PcI-9" value="capacity" style="text;align=left;verticalAlign=top;spacingLeft=4;spacingRight=4;overflow=hidden;rotatable=0;points=[[0,0.5],[1,0.5]];portConstraint=eastwest;" parent="zkfFHV4jXpPFQw0GAbJ--0" vertex="1">
          <mxGeometry y="26" width="160" height="24" as="geometry" />
        </mxCell>
        <mxCell id="DFCHfAah13juMa5k8PcI-2" value="Area" style="swimlane;fontStyle=2;align=center;verticalAlign=top;childLayout=stackLayout;horizontal=1;startSize=26;horizontalStack=0;resizeParent=1;resizeLast=0;collapsible=1;marginBottom=0;rounded=0;shadow=0;strokeWidth=1;" parent="WIyWlLk6GJQsqaUBKTNV-1" vertex="1">
          <mxGeometry x="400" y="30" width="160" height="52" as="geometry">
            <mxRectangle x="110" y="120" width="160" height="26" as="alternateBounds" />
          </mxGeometry>
        </mxCell>
        <mxCell id="DFCHfAah13juMa5k8PcI-5" value="coordinates" style="text;align=left;verticalAlign=top;spacingLeft=4;spacingRight=4;overflow=hidden;rotatable=0;points=[[0,0.5],[1,0.5]];portConstraint=eastwest;" parent="DFCHfAah13juMa5k8PcI-2" vertex="1">
          <mxGeometry y="26" width="160" height="26" as="geometry" />
        </mxCell>
        <mxCell id="DFCHfAah13juMa5k8PcI-11" value="Entrance" style="swimlane;fontStyle=2;align=center;verticalAlign=top;childLayout=stackLayout;horizontal=1;startSize=26;horizontalStack=0;resizeParent=1;resizeLast=0;collapsible=1;marginBottom=0;rounded=0;shadow=0;strokeWidth=1;" parent="WIyWlLk6GJQsqaUBKTNV-1" vertex="1">
          <mxGeometry x="640" y="168" width="160" height="50" as="geometry">
            <mxRectangle x="110" y="120" width="160" height="26" as="alternateBounds" />
          </mxGeometry>
        </mxCell>
        <mxCell id="DFCHfAah13juMa5k8PcI-14" value="" style="endArrow=block;endSize=16;endFill=0;html=1;rounded=0;entryX=0.981;entryY=-0.292;entryDx=0;entryDy=0;entryPerimeter=0;exitX=0;exitY=0.25;exitDx=0;exitDy=0;" parent="WIyWlLk6GJQsqaUBKTNV-1" source="DFCHfAah13juMa5k8PcI-11" target="DFCHfAah13juMa5k8PcI-34" edge="1">
          <mxGeometry width="160" relative="1" as="geometry">
            <mxPoint x="700" y="160" as="sourcePoint" />
            <mxPoint x="661" y="110" as="targetPoint" />
          </mxGeometry>
        </mxCell>
        <mxCell id="DFCHfAah13juMa5k8PcI-15" value="Venue" style="swimlane;fontStyle=2;align=center;verticalAlign=top;childLayout=stackLayout;horizontal=1;startSize=26;horizontalStack=0;resizeParent=1;resizeLast=0;collapsible=1;marginBottom=0;rounded=0;shadow=0;strokeWidth=1;" parent="WIyWlLk6GJQsqaUBKTNV-1" vertex="1">
          <mxGeometry x="380" y="370" width="160" height="50" as="geometry">
            <mxRectangle x="110" y="120" width="160" height="26" as="alternateBounds" />
          </mxGeometry>
        </mxCell>
        <mxCell id="DFCHfAah13juMa5k8PcI-31" value="numVisitors" style="text;align=left;verticalAlign=top;spacingLeft=4;spacingRight=4;overflow=hidden;rotatable=0;points=[[0,0.5],[1,0.5]];portConstraint=eastwest;" parent="DFCHfAah13juMa5k8PcI-15" vertex="1">
          <mxGeometry y="26" width="160" height="24" as="geometry" />
        </mxCell>
        <mxCell id="DFCHfAah13juMa5k8PcI-18" value="" style="endArrow=block;endSize=16;endFill=0;html=1;rounded=0;entryX=0.5;entryY=1;entryDx=0;entryDy=0;exitX=0.5;exitY=0;exitDx=0;exitDy=0;" parent="WIyWlLk6GJQsqaUBKTNV-1" source="DFCHfAah13juMa5k8PcI-15" target="zkfFHV4jXpPFQw0GAbJ--0" edge="1">
          <mxGeometry width="160" relative="1" as="geometry">
            <mxPoint x="534" y="500" as="sourcePoint" />
            <mxPoint x="534.5" y="461" as="targetPoint" />
          </mxGeometry>
        </mxCell>
        <mxCell id="DFCHfAah13juMa5k8PcI-19" value="ParkingArea" style="swimlane;fontStyle=2;align=center;verticalAlign=top;childLayout=stackLayout;horizontal=1;startSize=26;horizontalStack=0;resizeParent=1;resizeLast=0;collapsible=1;marginBottom=0;rounded=0;shadow=0;strokeWidth=1;" parent="WIyWlLk6GJQsqaUBKTNV-1" vertex="1">
          <mxGeometry x="560" y="370" width="160" height="50" as="geometry">
            <mxRectangle x="110" y="120" width="160" height="26" as="alternateBounds" />
          </mxGeometry>
        </mxCell>
        <mxCell id="DFCHfAah13juMa5k8PcI-32" value="numCars" style="text;align=left;verticalAlign=top;spacingLeft=4;spacingRight=4;overflow=hidden;rotatable=0;points=[[0,0.5],[1,0.5]];portConstraint=eastwest;" parent="DFCHfAah13juMa5k8PcI-19" vertex="1">
          <mxGeometry y="26" width="160" height="24" as="geometry" />
        </mxCell>
        <mxCell id="DFCHfAah13juMa5k8PcI-20" value="" style="endArrow=block;endSize=16;endFill=0;html=1;rounded=0;exitX=0.5;exitY=0;exitDx=0;exitDy=0;entryX=0.619;entryY=1.167;entryDx=0;entryDy=0;entryPerimeter=0;" parent="WIyWlLk6GJQsqaUBKTNV-1" source="DFCHfAah13juMa5k8PcI-19" target="DFCHfAah13juMa5k8PcI-9" edge="1">
          <mxGeometry width="160" relative="1" as="geometry">
            <mxPoint x="718" y="500" as="sourcePoint" />
            <mxPoint x="510" y="360" as="targetPoint" />
          </mxGeometry>
        </mxCell>
        <mxCell id="DFCHfAah13juMa5k8PcI-24" value="OperationsCenter" style="swimlane;fontStyle=2;align=center;verticalAlign=top;childLayout=stackLayout;horizontal=1;startSize=26;horizontalStack=0;resizeParent=1;resizeLast=0;collapsible=1;marginBottom=0;rounded=0;shadow=0;strokeWidth=1;" parent="WIyWlLk6GJQsqaUBKTNV-1" vertex="1">
          <mxGeometry x="640" y="90" width="160" height="50" as="geometry">
            <mxRectangle x="110" y="120" width="160" height="26" as="alternateBounds" />
          </mxGeometry>
        </mxCell>
        <mxCell id="DFCHfAah13juMa5k8PcI-26" value="" style="endArrow=block;endSize=16;endFill=0;html=1;rounded=0;entryX=0.988;entryY=0.145;entryDx=0;entryDy=0;exitX=0;exitY=0.25;exitDx=0;exitDy=0;entryPerimeter=0;" parent="WIyWlLk6GJQsqaUBKTNV-1" source="DFCHfAah13juMa5k8PcI-24" target="DFCHfAah13juMa5k8PcI-33" edge="1">
          <mxGeometry width="160" relative="1" as="geometry">
            <mxPoint x="710" y="120" as="sourcePoint" />
            <mxPoint x="650" y="100" as="targetPoint" />
          </mxGeometry>
        </mxCell>
        <mxCell id="DFCHfAah13juMa5k8PcI-27" value="TrafficHotspot" style="swimlane;fontStyle=2;align=center;verticalAlign=top;childLayout=stackLayout;horizontal=1;startSize=26;horizontalStack=0;resizeParent=1;resizeLast=0;collapsible=1;marginBottom=0;rounded=0;shadow=0;strokeWidth=1;" parent="WIyWlLk6GJQsqaUBKTNV-1" vertex="1">
          <mxGeometry x="640" y="30" width="160" height="50" as="geometry">
            <mxRectangle x="110" y="120" width="160" height="26" as="alternateBounds" />
          </mxGeometry>
        </mxCell>
        <mxCell id="DFCHfAah13juMa5k8PcI-30" value="" style="endArrow=block;endSize=16;endFill=0;html=1;rounded=0;entryX=0.925;entryY=0.018;entryDx=0;entryDy=0;entryPerimeter=0;exitX=0;exitY=0.25;exitDx=0;exitDy=0;" parent="WIyWlLk6GJQsqaUBKTNV-1" source="DFCHfAah13juMa5k8PcI-27" target="DFCHfAah13juMa5k8PcI-33" edge="1">
          <mxGeometry width="160" relative="1" as="geometry">
            <mxPoint x="1024" y="169" as="sourcePoint" />
            <mxPoint x="730" y="100" as="targetPoint" />
          </mxGeometry>
        </mxCell>
        <mxCell id="DFCHfAah13juMa5k8PcI-33" value="NamedArea" style="swimlane;fontStyle=2;align=center;verticalAlign=top;childLayout=stackLayout;horizontal=1;startSize=26;horizontalStack=0;resizeParent=1;resizeLast=0;collapsible=1;marginBottom=0;rounded=0;shadow=0;strokeWidth=1;" parent="WIyWlLk6GJQsqaUBKTNV-1" vertex="1">
          <mxGeometry x="400" y="155" width="160" height="55" as="geometry">
            <mxRectangle x="110" y="120" width="160" height="26" as="alternateBounds" />
          </mxGeometry>
        </mxCell>
        <mxCell id="DFCHfAah13juMa5k8PcI-34" value="name" style="text;align=left;verticalAlign=top;spacingLeft=4;spacingRight=4;overflow=hidden;rotatable=0;points=[[0,0.5],[1,0.5]];portConstraint=eastwest;" parent="DFCHfAah13juMa5k8PcI-33" vertex="1">
          <mxGeometry y="26" width="160" height="24" as="geometry" />
        </mxCell>
        <mxCell id="DFCHfAah13juMa5k8PcI-36" value="" style="endArrow=block;endSize=16;endFill=0;html=1;rounded=0;exitX=0.5;exitY=0;exitDx=0;exitDy=0;entryX=0.5;entryY=1;entryDx=0;entryDy=0;" parent="WIyWlLk6GJQsqaUBKTNV-1" source="DFCHfAah13juMa5k8PcI-33" target="DFCHfAah13juMa5k8PcI-2" edge="1">
          <mxGeometry width="160" relative="1" as="geometry">
            <mxPoint x="650" y="53" as="sourcePoint" />
            <mxPoint x="480" y="130" as="targetPoint" />
          </mxGeometry>
        </mxCell>
        <mxCell id="DFCHfAah13juMa5k8PcI-37" value="" style="endArrow=block;endSize=16;endFill=0;html=1;rounded=0;exitX=0.5;exitY=0;exitDx=0;exitDy=0;entryX=0.488;entryY=1.083;entryDx=0;entryDy=0;entryPerimeter=0;" parent="WIyWlLk6GJQsqaUBKTNV-1" source="zkfFHV4jXpPFQw0GAbJ--0" target="DFCHfAah13juMa5k8PcI-34" edge="1">
          <mxGeometry width="160" relative="1" as="geometry">
            <mxPoint x="490" y="165" as="sourcePoint" />
            <mxPoint x="440" y="240" as="targetPoint" />
          </mxGeometry>
        </mxCell>
        <mxCell id="DFCHfAah13juMa5k8PcI-38" value="Person" style="swimlane;fontStyle=2;align=center;verticalAlign=top;childLayout=stackLayout;horizontal=1;startSize=26;horizontalStack=0;resizeParent=1;resizeLast=0;collapsible=1;marginBottom=0;rounded=0;shadow=0;strokeWidth=1;" parent="WIyWlLk6GJQsqaUBKTNV-1" vertex="1">
          <mxGeometry x="330" y="480" width="160" height="122" as="geometry">
            <mxRectangle x="110" y="120" width="160" height="26" as="alternateBounds" />
          </mxGeometry>
        </mxCell>
        <mxCell id="DFCHfAah13juMa5k8PcI-51" value="currentPosition" style="text;align=left;verticalAlign=top;spacingLeft=4;spacingRight=4;overflow=hidden;rotatable=0;points=[[0,0.5],[1,0.5]];portConstraint=eastwest;" parent="DFCHfAah13juMa5k8PcI-38" vertex="1">
          <mxGeometry y="26" width="160" height="24" as="geometry" />
        </mxCell>
        <mxCell id="DFCHfAah13juMa5k8PcI-59" value="startPosition" style="text;align=left;verticalAlign=top;spacingLeft=4;spacingRight=4;overflow=hidden;rotatable=0;points=[[0,0.5],[1,0.5]];portConstraint=eastwest;" parent="DFCHfAah13juMa5k8PcI-38" vertex="1">
          <mxGeometry y="50" width="160" height="24" as="geometry" />
        </mxCell>
        <mxCell id="DFCHfAah13juMa5k8PcI-60" value="goalPosition" style="text;align=left;verticalAlign=top;spacingLeft=4;spacingRight=4;overflow=hidden;rotatable=0;points=[[0,0.5],[1,0.5]];portConstraint=eastwest;" parent="DFCHfAah13juMa5k8PcI-38" vertex="1">
          <mxGeometry y="74" width="160" height="24" as="geometry" />
        </mxCell>
        <mxCell id="DFCHfAah13juMa5k8PcI-58" value="behaviorAtGoalPosition" style="text;align=left;verticalAlign=top;spacingLeft=4;spacingRight=4;overflow=hidden;rotatable=0;points=[[0,0.5],[1,0.5]];portConstraint=eastwest;" parent="DFCHfAah13juMa5k8PcI-38" vertex="1">
          <mxGeometry y="98" width="160" height="24" as="geometry" />
        </mxCell>
        <mxCell id="DFCHfAah13juMa5k8PcI-41" value="PoliceOfficer " style="swimlane;fontStyle=2;align=center;verticalAlign=top;childLayout=stackLayout;horizontal=1;startSize=26;horizontalStack=0;resizeParent=1;resizeLast=0;collapsible=1;marginBottom=0;rounded=0;shadow=0;strokeWidth=1;" parent="WIyWlLk6GJQsqaUBKTNV-1" vertex="1">
          <mxGeometry x="10" y="612" width="160" height="55" as="geometry">
            <mxRectangle x="110" y="120" width="160" height="26" as="alternateBounds" />
          </mxGeometry>
        </mxCell>
        <mxCell id="DFCHfAah13juMa5k8PcI-44" value="" style="endArrow=block;endSize=16;endFill=0;html=1;rounded=0;exitX=0.5;exitY=0;exitDx=0;exitDy=0;entryX=0;entryY=0.5;entryDx=0;entryDy=0;" parent="WIyWlLk6GJQsqaUBKTNV-1" source="DFCHfAah13juMa5k8PcI-41" target="DFCHfAah13juMa5k8PcI-58" edge="1">
          <mxGeometry width="160" relative="1" as="geometry">
            <mxPoint x="-400" y="1060" as="sourcePoint" />
            <mxPoint x="-541" y="1014" as="targetPoint" />
          </mxGeometry>
        </mxCell>
        <mxCell id="DFCHfAah13juMa5k8PcI-45" value="Paramedic" style="swimlane;fontStyle=2;align=center;verticalAlign=top;childLayout=stackLayout;horizontal=1;startSize=26;horizontalStack=0;resizeParent=1;resizeLast=0;collapsible=1;marginBottom=0;rounded=0;shadow=0;strokeWidth=1;" parent="WIyWlLk6GJQsqaUBKTNV-1" vertex="1">
          <mxGeometry x="80" y="683" width="160" height="55" as="geometry">
            <mxRectangle x="110" y="120" width="160" height="26" as="alternateBounds" />
          </mxGeometry>
        </mxCell>
        <mxCell id="DFCHfAah13juMa5k8PcI-46" value="" style="endArrow=block;endSize=16;endFill=0;html=1;rounded=0;exitX=0.5;exitY=0;exitDx=0;exitDy=0;entryX=0.375;entryY=1.125;entryDx=0;entryDy=0;entryPerimeter=0;" parent="WIyWlLk6GJQsqaUBKTNV-1" source="DFCHfAah13juMa5k8PcI-45" target="DFCHfAah13juMa5k8PcI-58" edge="1">
          <mxGeometry width="160" relative="1" as="geometry">
            <mxPoint x="-200" y="940" as="sourcePoint" />
            <mxPoint x="10" y="750" as="targetPoint" />
          </mxGeometry>
        </mxCell>
        <mxCell id="DFCHfAah13juMa5k8PcI-49" value="Firefighter" style="swimlane;fontStyle=2;align=center;verticalAlign=top;childLayout=stackLayout;horizontal=1;startSize=26;horizontalStack=0;resizeParent=1;resizeLast=0;collapsible=1;marginBottom=0;rounded=0;shadow=0;strokeWidth=1;" parent="WIyWlLk6GJQsqaUBKTNV-1" vertex="1">
          <mxGeometry x="273.5" y="667" width="160" height="55" as="geometry">
            <mxRectangle x="110" y="120" width="160" height="26" as="alternateBounds" />
          </mxGeometry>
        </mxCell>
        <mxCell id="DFCHfAah13juMa5k8PcI-50" value="" style="endArrow=block;endSize=16;endFill=0;html=1;rounded=0;exitX=0.5;exitY=0;exitDx=0;exitDy=0;entryX=0.731;entryY=1.125;entryDx=0;entryDy=0;entryPerimeter=0;" parent="WIyWlLk6GJQsqaUBKTNV-1" source="DFCHfAah13juMa5k8PcI-49" target="DFCHfAah13juMa5k8PcI-58" edge="1">
          <mxGeometry width="160" relative="1" as="geometry">
            <mxPoint x="-16" y="940" as="sourcePoint" />
            <mxPoint x="214" y="745" as="targetPoint" />
          </mxGeometry>
        </mxCell>
        <mxCell id="DFCHfAah13juMa5k8PcI-61" value="Resident" style="swimlane;fontStyle=2;align=center;verticalAlign=top;childLayout=stackLayout;horizontal=1;startSize=26;horizontalStack=0;resizeParent=1;resizeLast=0;collapsible=1;marginBottom=0;rounded=0;shadow=0;strokeWidth=1;" parent="WIyWlLk6GJQsqaUBKTNV-1" vertex="1">
          <mxGeometry x="480" y="628" width="160" height="55" as="geometry">
            <mxRectangle x="660" y="518" width="160" height="26" as="alternateBounds" />
          </mxGeometry>
        </mxCell>
        <mxCell id="DFCHfAah13juMa5k8PcI-62" value="" style="endArrow=block;endSize=16;endFill=0;html=1;rounded=0;exitX=0.5;exitY=0;exitDx=0;exitDy=0;entryX=1;entryY=0.75;entryDx=0;entryDy=0;" parent="WIyWlLk6GJQsqaUBKTNV-1" source="DFCHfAah13juMa5k8PcI-61" target="DFCHfAah13juMa5k8PcI-38" edge="1">
          <mxGeometry width="160" relative="1" as="geometry">
            <mxPoint x="134" y="868" as="sourcePoint" />
            <mxPoint x="640" y="530" as="targetPoint" />
          </mxGeometry>
        </mxCell>
        <mxCell id="DFCHfAah13juMa5k8PcI-63" value="AdaptingResident" style="swimlane;fontStyle=2;align=center;verticalAlign=top;childLayout=stackLayout;horizontal=1;startSize=26;horizontalStack=0;resizeParent=1;resizeLast=0;collapsible=1;marginBottom=0;rounded=0;shadow=0;strokeWidth=1;" parent="WIyWlLk6GJQsqaUBKTNV-1" vertex="1">
          <mxGeometry x="310" y="750" width="160" height="55" as="geometry">
            <mxRectangle x="660" y="518" width="160" height="26" as="alternateBounds" />
          </mxGeometry>
        </mxCell>
        <mxCell id="DFCHfAah13juMa5k8PcI-65" value="" style="endArrow=block;endSize=16;endFill=0;html=1;rounded=0;exitX=0.5;exitY=0;exitDx=0;exitDy=0;entryX=0.5;entryY=1;entryDx=0;entryDy=0;" parent="WIyWlLk6GJQsqaUBKTNV-1" source="DFCHfAah13juMa5k8PcI-63" target="DFCHfAah13juMa5k8PcI-61" edge="1">
          <mxGeometry width="160" relative="1" as="geometry">
            <mxPoint x="610" y="638" as="sourcePoint" />
            <mxPoint x="500" y="582" as="targetPoint" />
          </mxGeometry>
        </mxCell>
        <mxCell id="DFCHfAah13juMa5k8PcI-66" value="ScheduledResident" style="swimlane;fontStyle=2;align=center;verticalAlign=top;childLayout=stackLayout;horizontal=1;startSize=26;horizontalStack=0;resizeParent=1;resizeLast=0;collapsible=1;marginBottom=0;rounded=0;shadow=0;strokeWidth=1;" parent="WIyWlLk6GJQsqaUBKTNV-1" vertex="1">
          <mxGeometry x="510" y="755" width="160" height="55" as="geometry">
            <mxRectangle x="660" y="518" width="160" height="26" as="alternateBounds" />
          </mxGeometry>
        </mxCell>
        <mxCell id="DFCHfAah13juMa5k8PcI-67" value="" style="endArrow=block;endSize=16;endFill=0;html=1;rounded=0;exitX=0.5;exitY=0;exitDx=0;exitDy=0;" parent="WIyWlLk6GJQsqaUBKTNV-1" source="DFCHfAah13juMa5k8PcI-66" edge="1">
          <mxGeometry width="160" relative="1" as="geometry">
            <mxPoint x="790" y="638" as="sourcePoint" />
            <mxPoint x="600" y="683" as="targetPoint" />
          </mxGeometry>
        </mxCell>
        <mxCell id="DFCHfAah13juMa5k8PcI-77" value="" style="endArrow=open;endFill=0;html=1;edgeStyle=orthogonalEdgeStyle;align=left;verticalAlign=top;rounded=0;exitX=0.438;exitY=0;exitDx=0;exitDy=0;exitPerimeter=0;startArrow=open;startFill=0;" parent="WIyWlLk6GJQsqaUBKTNV-1" source="DFCHfAah13juMa5k8PcI-41" edge="1">
          <mxGeometry x="-1" relative="1" as="geometry">
            <mxPoint x="114.07999999999993" y="602" as="sourcePoint" />
            <mxPoint x="400" y="40" as="targetPoint" />
            <Array as="points">
              <mxPoint x="80" y="40" />
              <mxPoint x="400" y="40" />
            </Array>
          </mxGeometry>
        </mxCell>
        <mxCell id="DFCHfAah13juMa5k8PcI-78" value="1" style="edgeLabel;resizable=0;html=1;align=left;verticalAlign=bottom;" parent="DFCHfAah13juMa5k8PcI-77" connectable="0" vertex="1">
          <mxGeometry x="-1" relative="1" as="geometry">
            <mxPoint x="-14" y="-12" as="offset" />
          </mxGeometry>
        </mxCell>
        <mxCell id="DFCHfAah13juMa5k8PcI-79" value="0..*" style="edgeLabel;html=1;align=center;verticalAlign=middle;resizable=0;points=[];" parent="DFCHfAah13juMa5k8PcI-77" vertex="1" connectable="0">
          <mxGeometry x="0.8639" y="1" relative="1" as="geometry">
            <mxPoint x="38" y="-11" as="offset" />
          </mxGeometry>
        </mxCell>
        <mxCell id="DFCHfAah13juMa5k8PcI-80" value="policeOfficers" style="edgeLabel;html=1;align=center;verticalAlign=middle;resizable=0;points=[];rotation=0;" parent="DFCHfAah13juMa5k8PcI-77" vertex="1" connectable="0">
          <mxGeometry x="0.4965" relative="1" as="geometry">
            <mxPoint x="175" y="8" as="offset" />
          </mxGeometry>
        </mxCell>
        <mxCell id="DFCHfAah13juMa5k8PcI-81" value="currentArea" style="edgeLabel;html=1;align=center;verticalAlign=middle;resizable=0;points=[];rotation=-90;" parent="DFCHfAah13juMa5k8PcI-77" vertex="1" connectable="0">
          <mxGeometry x="-0.8638" y="1" relative="1" as="geometry">
            <mxPoint x="17" y="13" as="offset" />
          </mxGeometry>
        </mxCell>
        <mxCell id="DFCHfAah13juMa5k8PcI-92" value="" style="endArrow=open;endFill=0;html=1;edgeStyle=orthogonalEdgeStyle;align=left;verticalAlign=top;rounded=0;startArrow=open;startFill=0;exitX=0.722;exitY=0.022;exitDx=0;exitDy=0;exitPerimeter=0;" parent="WIyWlLk6GJQsqaUBKTNV-1" source="DFCHfAah13juMa5k8PcI-45" edge="1">
          <mxGeometry x="-1" relative="1" as="geometry">
            <mxPoint x="200" y="490" as="sourcePoint" />
            <mxPoint x="400" y="70" as="targetPoint" />
            <Array as="points">
              <mxPoint x="195" y="70" />
            </Array>
          </mxGeometry>
        </mxCell>
        <mxCell id="DFCHfAah13juMa5k8PcI-93" value="1" style="edgeLabel;resizable=0;html=1;align=left;verticalAlign=bottom;" parent="DFCHfAah13juMa5k8PcI-92" connectable="0" vertex="1">
          <mxGeometry x="-1" relative="1" as="geometry">
            <mxPoint x="-14" y="-12" as="offset" />
          </mxGeometry>
        </mxCell>
        <mxCell id="DFCHfAah13juMa5k8PcI-94" value="0..*" style="edgeLabel;html=1;align=center;verticalAlign=middle;resizable=0;points=[];" parent="DFCHfAah13juMa5k8PcI-92" vertex="1" connectable="0">
          <mxGeometry x="0.8639" y="1" relative="1" as="geometry">
            <mxPoint x="38" y="-11" as="offset" />
          </mxGeometry>
        </mxCell>
        <mxCell id="DFCHfAah13juMa5k8PcI-95" value="paramedics" style="edgeLabel;html=1;align=center;verticalAlign=middle;resizable=0;points=[];rotation=0;" parent="DFCHfAah13juMa5k8PcI-92" vertex="1" connectable="0">
          <mxGeometry x="0.4965" relative="1" as="geometry">
            <mxPoint x="164" y="8" as="offset" />
          </mxGeometry>
        </mxCell>
        <mxCell id="DFCHfAah13juMa5k8PcI-96" value="currentArea" style="edgeLabel;html=1;align=center;verticalAlign=middle;resizable=0;points=[];rotation=-90;" parent="DFCHfAah13juMa5k8PcI-92" vertex="1" connectable="0">
          <mxGeometry x="-0.8638" y="1" relative="1" as="geometry">
            <mxPoint x="17" y="13" as="offset" />
          </mxGeometry>
        </mxCell>
        <mxCell id="DFCHfAah13juMa5k8PcI-97" value="" style="endArrow=open;endFill=0;html=1;edgeStyle=orthogonalEdgeStyle;align=left;verticalAlign=top;rounded=0;exitX=0.093;exitY=0.013;exitDx=0;exitDy=0;exitPerimeter=0;startArrow=open;startFill=0;entryX=0.069;entryY=1.043;entryDx=0;entryDy=0;entryPerimeter=0;" parent="WIyWlLk6GJQsqaUBKTNV-1" source="DFCHfAah13juMa5k8PcI-49" target="DFCHfAah13juMa5k8PcI-5" edge="1">
          <mxGeometry x="-1" relative="1" as="geometry">
            <mxPoint x="100" y="632" as="sourcePoint" />
            <mxPoint x="410" y="120" as="targetPoint" />
            <Array as="points">
              <mxPoint x="288" y="650" />
              <mxPoint x="290" y="650" />
              <mxPoint x="290" y="260" />
              <mxPoint x="380" y="260" />
              <mxPoint x="380" y="140" />
              <mxPoint x="411" y="140" />
            </Array>
          </mxGeometry>
        </mxCell>
        <mxCell id="DFCHfAah13juMa5k8PcI-98" value="1" style="edgeLabel;resizable=0;html=1;align=left;verticalAlign=bottom;" parent="DFCHfAah13juMa5k8PcI-97" connectable="0" vertex="1">
          <mxGeometry x="-1" relative="1" as="geometry">
            <mxPoint x="-14" y="-12" as="offset" />
          </mxGeometry>
        </mxCell>
        <mxCell id="DFCHfAah13juMa5k8PcI-99" value="0..*" style="edgeLabel;html=1;align=center;verticalAlign=middle;resizable=0;points=[];" parent="DFCHfAah13juMa5k8PcI-97" vertex="1" connectable="0">
          <mxGeometry x="0.8639" y="1" relative="1" as="geometry">
            <mxPoint x="-10" y="-31" as="offset" />
          </mxGeometry>
        </mxCell>
        <mxCell id="DFCHfAah13juMa5k8PcI-100" value="policeOfficers" style="edgeLabel;html=1;align=center;verticalAlign=middle;resizable=0;points=[];rotation=0;" parent="DFCHfAah13juMa5k8PcI-97" vertex="1" connectable="0">
          <mxGeometry x="0.4965" relative="1" as="geometry">
            <mxPoint x="175" y="8" as="offset" />
          </mxGeometry>
        </mxCell>
        <mxCell id="DFCHfAah13juMa5k8PcI-101" value="currentArea" style="edgeLabel;html=1;align=center;verticalAlign=middle;resizable=0;points=[];rotation=-90;" parent="DFCHfAah13juMa5k8PcI-97" vertex="1" connectable="0">
          <mxGeometry x="-0.8638" y="1" relative="1" as="geometry">
            <mxPoint x="11" y="-1" as="offset" />
          </mxGeometry>
        </mxCell>
        <mxCell id="DFCHfAah13juMa5k8PcI-102" value="firefighters" style="edgeLabel;html=1;align=center;verticalAlign=middle;resizable=0;points=[];rotation=-90;" parent="WIyWlLk6GJQsqaUBKTNV-1" vertex="1" connectable="0">
          <mxGeometry x="420.00286544533014" y="114.99620802240413" as="geometry" />
        </mxCell>
        <mxCell id="DFCHfAah13juMa5k8PcI-104" style="edgeStyle=orthogonalEdgeStyle;rounded=0;orthogonalLoop=1;jettySize=auto;html=1;exitX=0.5;exitY=0;exitDx=0;exitDy=0;entryX=0.998;entryY=0.151;entryDx=0;entryDy=0;entryPerimeter=0;startArrow=open;startFill=0;endArrow=open;endFill=0;" parent="WIyWlLk6GJQsqaUBKTNV-1" source="DFCHfAah13juMa5k8PcI-38" target="DFCHfAah13juMa5k8PcI-5" edge="1">
          <mxGeometry relative="1" as="geometry">
            <mxPoint x="570" y="60" as="targetPoint" />
            <Array as="points">
              <mxPoint x="410" y="450" />
              <mxPoint x="740" y="450" />
              <mxPoint x="740" y="260" />
              <mxPoint x="620" y="260" />
              <mxPoint x="620" y="60" />
            </Array>
          </mxGeometry>
        </mxCell>
        <mxCell id="DFCHfAah13juMa5k8PcI-106" value="persons" style="edgeLabel;html=1;align=center;verticalAlign=middle;resizable=0;points=[];rotation=0;" parent="DFCHfAah13juMa5k8PcI-104" vertex="1" connectable="0">
          <mxGeometry x="0.9563" y="2" relative="1" as="geometry">
            <mxPoint x="10" y="7" as="offset" />
          </mxGeometry>
        </mxCell>
        <mxCell id="DFCHfAah13juMa5k8PcI-107" value="0..*" style="edgeLabel;html=1;align=center;verticalAlign=middle;resizable=0;points=[];" parent="DFCHfAah13juMa5k8PcI-104" vertex="1" connectable="0">
          <mxGeometry x="0.9499" y="-9" relative="1" as="geometry">
            <mxPoint as="offset" />
          </mxGeometry>
        </mxCell>
        <mxCell id="DFCHfAah13juMa5k8PcI-108" value="1" style="edgeLabel;html=1;align=center;verticalAlign=middle;resizable=0;points=[];" parent="DFCHfAah13juMa5k8PcI-104" vertex="1" connectable="0">
          <mxGeometry x="-0.9033" y="-3" relative="1" as="geometry">
            <mxPoint x="-11" y="-13" as="offset" />
          </mxGeometry>
        </mxCell>
        <mxCell id="DFCHfAah13juMa5k8PcI-109" value="currentArea" style="edgeLabel;html=1;align=center;verticalAlign=middle;resizable=0;points=[];" parent="DFCHfAah13juMa5k8PcI-104" vertex="1" connectable="0">
          <mxGeometry x="-0.5421" y="-1" relative="1" as="geometry">
            <mxPoint x="-153" y="9" as="offset" />
          </mxGeometry>
        </mxCell>
        <mxCell id="ZO2d8BOxsXSMYvjoeCwA-0" value="Visitor" style="swimlane;fontStyle=2;align=center;verticalAlign=top;childLayout=stackLayout;horizontal=1;startSize=26;horizontalStack=0;resizeParent=1;resizeLast=0;collapsible=1;marginBottom=0;rounded=0;shadow=0;strokeWidth=1;" parent="WIyWlLk6GJQsqaUBKTNV-1" vertex="1">
          <mxGeometry x="710" y="622.5" width="280" height="320" as="geometry">
            <mxRectangle x="550" y="140" width="160" height="26" as="alternateBounds" />
          </mxGeometry>
        </mxCell>
        <mxCell id="ZO2d8BOxsXSMYvjoeCwA-1" value="+ visitorType: VisitorType" style="text;align=left;verticalAlign=top;spacingLeft=4;spacingRight=4;overflow=hidden;rotatable=0;points=[[0,0.5],[1,0.5]];portConstraint=eastwest;" parent="ZO2d8BOxsXSMYvjoeCwA-0" vertex="1">
          <mxGeometry y="26" width="280" height="26" as="geometry" />
        </mxCell>
        <mxCell id="ZO2d8BOxsXSMYvjoeCwA-2" value="+ arrivalTime: Time" style="text;align=left;verticalAlign=top;spacingLeft=4;spacingRight=4;overflow=hidden;rotatable=0;points=[[0,0.5],[1,0.5]];portConstraint=eastwest;rounded=0;shadow=0;html=0;" parent="ZO2d8BOxsXSMYvjoeCwA-0" vertex="1">
          <mxGeometry y="52" width="280" height="26" as="geometry" />
        </mxCell>
        <mxCell id="ZO2d8BOxsXSMYvjoeCwA-3" value="+ departureTime: Time" style="text;align=left;verticalAlign=top;spacingLeft=4;spacingRight=4;overflow=hidden;rotatable=0;points=[[0,0.5],[1,0.5]];portConstraint=eastwest;rounded=0;shadow=0;html=0;" parent="ZO2d8BOxsXSMYvjoeCwA-0" vertex="1">
          <mxGeometry y="78" width="280" height="26" as="geometry" />
        </mxCell>
        <mxCell id="ZO2d8BOxsXSMYvjoeCwA-4" value="+ transportationType: TransportationType" style="text;align=left;verticalAlign=top;spacingLeft=4;spacingRight=4;overflow=hidden;rotatable=0;points=[[0,0.5],[1,0.5]];portConstraint=eastwest;rounded=0;shadow=0;html=0;" parent="ZO2d8BOxsXSMYvjoeCwA-0" vertex="1">
          <mxGeometry y="104" width="280" height="26" as="geometry" />
        </mxCell>
        <mxCell id="ZO2d8BOxsXSMYvjoeCwA-5" value="+ availableTransportation: TransportationType[1..4]" style="text;align=left;verticalAlign=top;spacingLeft=4;spacingRight=4;overflow=hidden;rotatable=0;points=[[0,0.5],[1,0.5]];portConstraint=eastwest;rounded=0;shadow=0;html=0;" parent="ZO2d8BOxsXSMYvjoeCwA-0" vertex="1">
          <mxGeometry y="130" width="280" height="30" as="geometry" />
        </mxCell>
        <mxCell id="ZO2d8BOxsXSMYvjoeCwA-6" value="+ departureBehavior: DepartureBehavior" style="text;strokeColor=none;fillColor=none;align=left;verticalAlign=top;spacingLeft=4;spacingRight=4;overflow=hidden;rotatable=0;points=[[0,0.5],[1,0.5]];portConstraint=eastwest;whiteSpace=wrap;html=1;" parent="ZO2d8BOxsXSMYvjoeCwA-0" vertex="1">
          <mxGeometry y="160" width="280" height="26" as="geometry" />
        </mxCell>
        <mxCell id="ZO2d8BOxsXSMYvjoeCwA-7" value="+ age: Integer" style="text;strokeColor=none;fillColor=none;align=left;verticalAlign=top;spacingLeft=4;spacingRight=4;overflow=hidden;rotatable=0;points=[[0,0.5],[1,0.5]];portConstraint=eastwest;whiteSpace=wrap;html=1;" parent="ZO2d8BOxsXSMYvjoeCwA-0" vertex="1">
          <mxGeometry y="186" width="280" height="26" as="geometry" />
        </mxCell>
        <mxCell id="ZO2d8BOxsXSMYvjoeCwA-8" value="+ groupSize: GroupSize" style="text;strokeColor=none;fillColor=none;align=left;verticalAlign=top;spacingLeft=4;spacingRight=4;overflow=hidden;rotatable=0;points=[[0,0.5],[1,0.5]];portConstraint=eastwest;whiteSpace=wrap;html=1;" parent="ZO2d8BOxsXSMYvjoeCwA-0" vertex="1">
          <mxGeometry y="212" width="280" height="26" as="geometry" />
        </mxCell>
        <mxCell id="ZO2d8BOxsXSMYvjoeCwA-9" value="+ disabilityStatus: Yes/No" style="text;strokeColor=none;fillColor=none;align=left;verticalAlign=top;spacingLeft=4;spacingRight=4;overflow=hidden;rotatable=0;points=[[0,0.5],[1,0.5]];portConstraint=eastwest;whiteSpace=wrap;html=1;" parent="ZO2d8BOxsXSMYvjoeCwA-0" vertex="1">
          <mxGeometry y="238" width="280" height="26" as="geometry" />
        </mxCell>
        <mxCell id="ZO2d8BOxsXSMYvjoeCwA-10" value="+ employmentStatus: EmploymentType" style="text;strokeColor=none;fillColor=none;align=left;verticalAlign=top;spacingLeft=4;spacingRight=4;overflow=hidden;rotatable=0;points=[[0,0.5],[1,0.5]];portConstraint=eastwest;whiteSpace=wrap;html=1;" parent="ZO2d8BOxsXSMYvjoeCwA-0" vertex="1">
          <mxGeometry y="264" width="280" height="26" as="geometry" />
        </mxCell>
        <mxCell id="ZO2d8BOxsXSMYvjoeCwA-11" value="" style="line;html=1;strokeWidth=1;align=left;verticalAlign=middle;spacingTop=-1;spacingLeft=3;spacingRight=3;rotatable=0;labelPosition=right;points=[];portConstraint=eastwest;" parent="ZO2d8BOxsXSMYvjoeCwA-0" vertex="1">
          <mxGeometry y="290" width="280" height="8" as="geometry" />
        </mxCell>
        <mxCell id="ZO2d8BOxsXSMYvjoeCwA-12" value="" style="endArrow=block;endSize=16;endFill=0;html=1;rounded=0;entryX=1;entryY=0.5;entryDx=0;entryDy=0;" parent="WIyWlLk6GJQsqaUBKTNV-1" target="DFCHfAah13juMa5k8PcI-59" edge="1">
          <mxGeometry width="160" relative="1" as="geometry">
            <mxPoint x="760" y="620" as="sourcePoint" />
            <mxPoint x="500" y="582" as="targetPoint" />
          </mxGeometry>
        </mxCell>
        <mxCell id="ZO2d8BOxsXSMYvjoeCwA-13" value="&amp;lt;&amp;lt;Enumeration&amp;gt;&amp;gt;&lt;br&gt;VisitorType" style="swimlane;fontStyle=1;align=center;verticalAlign=top;childLayout=stackLayout;horizontal=1;startSize=38;horizontalStack=0;resizeParent=1;resizeParentMax=0;resizeLast=0;collapsible=1;marginBottom=0;whiteSpace=wrap;html=1;" parent="WIyWlLk6GJQsqaUBKTNV-1" vertex="1">
          <mxGeometry x="290" y="993" width="160" height="124" as="geometry" />
        </mxCell>
        <mxCell id="ZO2d8BOxsXSMYvjoeCwA-14" value="STANDING" style="text;strokeColor=none;fillColor=none;align=left;verticalAlign=top;spacingLeft=4;spacingRight=4;overflow=hidden;rotatable=0;points=[[0,0.5],[1,0.5]];portConstraint=eastwest;whiteSpace=wrap;html=1;" parent="ZO2d8BOxsXSMYvjoeCwA-13" vertex="1">
          <mxGeometry y="38" width="160" height="26" as="geometry" />
        </mxCell>
        <mxCell id="ZO2d8BOxsXSMYvjoeCwA-15" value="SEATING" style="text;strokeColor=none;fillColor=none;align=left;verticalAlign=top;spacingLeft=4;spacingRight=4;overflow=hidden;rotatable=0;points=[[0,0.5],[1,0.5]];portConstraint=eastwest;whiteSpace=wrap;html=1;" parent="ZO2d8BOxsXSMYvjoeCwA-13" vertex="1">
          <mxGeometry y="64" width="160" height="26" as="geometry" />
        </mxCell>
        <mxCell id="ZO2d8BOxsXSMYvjoeCwA-16" value="VIP" style="text;strokeColor=none;fillColor=none;align=left;verticalAlign=top;spacingLeft=4;spacingRight=4;overflow=hidden;rotatable=0;points=[[0,0.5],[1,0.5]];portConstraint=eastwest;whiteSpace=wrap;html=1;" parent="ZO2d8BOxsXSMYvjoeCwA-13" vertex="1">
          <mxGeometry y="90" width="160" height="26" as="geometry" />
        </mxCell>
        <mxCell id="ZO2d8BOxsXSMYvjoeCwA-17" value="" style="line;strokeWidth=1;fillColor=none;align=left;verticalAlign=middle;spacingTop=-1;spacingLeft=3;spacingRight=3;rotatable=0;labelPosition=right;points=[];portConstraint=eastwest;strokeColor=inherit;" parent="ZO2d8BOxsXSMYvjoeCwA-13" vertex="1">
          <mxGeometry y="116" width="160" height="8" as="geometry" />
        </mxCell>
        <mxCell id="ZO2d8BOxsXSMYvjoeCwA-18" value="&amp;lt;&amp;lt;Enumeration&amp;gt;&amp;gt;&lt;br&gt;TransportationType" style="swimlane;fontStyle=1;align=center;verticalAlign=top;childLayout=stackLayout;horizontal=1;startSize=38;horizontalStack=0;resizeParent=1;resizeParentMax=0;resizeLast=0;collapsible=1;marginBottom=0;whiteSpace=wrap;html=1;" parent="WIyWlLk6GJQsqaUBKTNV-1" vertex="1">
          <mxGeometry x="470" y="993" width="160" height="178" as="geometry" />
        </mxCell>
        <mxCell id="ZO2d8BOxsXSMYvjoeCwA-19" value="BICYCLE" style="text;strokeColor=none;fillColor=none;align=left;verticalAlign=top;spacingLeft=4;spacingRight=4;overflow=hidden;rotatable=0;points=[[0,0.5],[1,0.5]];portConstraint=eastwest;whiteSpace=wrap;html=1;" parent="ZO2d8BOxsXSMYvjoeCwA-18" vertex="1">
          <mxGeometry y="38" width="160" height="26" as="geometry" />
        </mxCell>
        <mxCell id="ZO2d8BOxsXSMYvjoeCwA-20" value="PUBLIC_TRANSPORT" style="text;strokeColor=none;fillColor=none;align=left;verticalAlign=top;spacingLeft=4;spacingRight=4;overflow=hidden;rotatable=0;points=[[0,0.5],[1,0.5]];portConstraint=eastwest;whiteSpace=wrap;html=1;" parent="ZO2d8BOxsXSMYvjoeCwA-18" vertex="1">
          <mxGeometry y="64" width="160" height="26" as="geometry" />
        </mxCell>
        <mxCell id="ZO2d8BOxsXSMYvjoeCwA-21" value="CAR" style="text;strokeColor=none;fillColor=none;align=left;verticalAlign=top;spacingLeft=4;spacingRight=4;overflow=hidden;rotatable=0;points=[[0,0.5],[1,0.5]];portConstraint=eastwest;whiteSpace=wrap;html=1;" parent="ZO2d8BOxsXSMYvjoeCwA-18" vertex="1">
          <mxGeometry y="90" width="160" height="26" as="geometry" />
        </mxCell>
        <mxCell id="ZO2d8BOxsXSMYvjoeCwA-22" value="WALKING&lt;div&gt;&lt;br&gt;&lt;/div&gt;&lt;div&gt;TOURBUS/TOURTRUCK&lt;br&gt;&lt;div&gt;&lt;br&gt;&lt;/div&gt;&lt;/div&gt;" style="text;strokeColor=none;fillColor=none;align=left;verticalAlign=top;spacingLeft=4;spacingRight=4;overflow=hidden;rotatable=0;points=[[0,0.5],[1,0.5]];portConstraint=eastwest;whiteSpace=wrap;html=1;" parent="ZO2d8BOxsXSMYvjoeCwA-18" vertex="1">
          <mxGeometry y="116" width="160" height="54" as="geometry" />
        </mxCell>
        <mxCell id="ZO2d8BOxsXSMYvjoeCwA-23" value="" style="line;strokeWidth=1;fillColor=none;align=left;verticalAlign=middle;spacingTop=-1;spacingLeft=3;spacingRight=3;rotatable=0;labelPosition=right;points=[];portConstraint=eastwest;strokeColor=inherit;" parent="ZO2d8BOxsXSMYvjoeCwA-18" vertex="1">
          <mxGeometry y="170" width="160" height="8" as="geometry" />
        </mxCell>
        <mxCell id="ZO2d8BOxsXSMYvjoeCwA-24" value="&amp;lt;&amp;lt;Enumeration&amp;gt;&amp;gt;&lt;br&gt;GroupSize" style="swimlane;fontStyle=1;align=center;verticalAlign=top;childLayout=stackLayout;horizontal=1;startSize=38;horizontalStack=0;resizeParent=1;resizeParentMax=0;resizeLast=0;collapsible=1;marginBottom=0;whiteSpace=wrap;html=1;" parent="WIyWlLk6GJQsqaUBKTNV-1" vertex="1">
          <mxGeometry x="650" y="993" width="160" height="150" as="geometry" />
        </mxCell>
        <mxCell id="ZO2d8BOxsXSMYvjoeCwA-25" value="INDIVIDUAL" style="text;strokeColor=none;fillColor=none;align=left;verticalAlign=top;spacingLeft=4;spacingRight=4;overflow=hidden;rotatable=0;points=[[0,0.5],[1,0.5]];portConstraint=eastwest;whiteSpace=wrap;html=1;" parent="ZO2d8BOxsXSMYvjoeCwA-24" vertex="1">
          <mxGeometry y="38" width="160" height="26" as="geometry" />
        </mxCell>
        <mxCell id="ZO2d8BOxsXSMYvjoeCwA-26" value="FRIEND_GROUP" style="text;strokeColor=none;fillColor=none;align=left;verticalAlign=top;spacingLeft=4;spacingRight=4;overflow=hidden;rotatable=0;points=[[0,0.5],[1,0.5]];portConstraint=eastwest;whiteSpace=wrap;html=1;" parent="ZO2d8BOxsXSMYvjoeCwA-24" vertex="1">
          <mxGeometry y="64" width="160" height="26" as="geometry" />
        </mxCell>
        <mxCell id="ZO2d8BOxsXSMYvjoeCwA-27" value="COUPLE" style="text;strokeColor=none;fillColor=none;align=left;verticalAlign=top;spacingLeft=4;spacingRight=4;overflow=hidden;rotatable=0;points=[[0,0.5],[1,0.5]];portConstraint=eastwest;whiteSpace=wrap;html=1;" parent="ZO2d8BOxsXSMYvjoeCwA-24" vertex="1">
          <mxGeometry y="90" width="160" height="26" as="geometry" />
        </mxCell>
        <mxCell id="ZO2d8BOxsXSMYvjoeCwA-28" value="FAMILY" style="text;strokeColor=none;fillColor=none;align=left;verticalAlign=top;spacingLeft=4;spacingRight=4;overflow=hidden;rotatable=0;points=[[0,0.5],[1,0.5]];portConstraint=eastwest;whiteSpace=wrap;html=1;" parent="ZO2d8BOxsXSMYvjoeCwA-24" vertex="1">
          <mxGeometry y="116" width="160" height="26" as="geometry" />
        </mxCell>
        <mxCell id="ZO2d8BOxsXSMYvjoeCwA-29" value="" style="line;strokeWidth=1;fillColor=none;align=left;verticalAlign=middle;spacingTop=-1;spacingLeft=3;spacingRight=3;rotatable=0;labelPosition=right;points=[];portConstraint=eastwest;strokeColor=inherit;" parent="ZO2d8BOxsXSMYvjoeCwA-24" vertex="1">
          <mxGeometry y="142" width="160" height="8" as="geometry" />
        </mxCell>
        <mxCell id="ZO2d8BOxsXSMYvjoeCwA-30" value="&amp;lt;&amp;lt;Enumeration&amp;gt;&amp;gt;&lt;br&gt;DepartureBehavior" style="swimlane;fontStyle=1;align=center;verticalAlign=top;childLayout=stackLayout;horizontal=1;startSize=38;horizontalStack=0;resizeParent=1;resizeParentMax=0;resizeLast=0;collapsible=1;marginBottom=0;whiteSpace=wrap;html=1;" parent="WIyWlLk6GJQsqaUBKTNV-1" vertex="1">
          <mxGeometry x="830" y="993" width="160" height="176" as="geometry" />
        </mxCell>
        <mxCell id="ZO2d8BOxsXSMYvjoeCwA-31" value="STAY_UNTIL_END" style="text;strokeColor=none;fillColor=none;align=left;verticalAlign=top;spacingLeft=4;spacingRight=4;overflow=hidden;rotatable=0;points=[[0,0.5],[1,0.5]];portConstraint=eastwest;whiteSpace=wrap;html=1;" parent="ZO2d8BOxsXSMYvjoeCwA-30" vertex="1">
          <mxGeometry y="38" width="160" height="26" as="geometry" />
        </mxCell>
        <mxCell id="ZO2d8BOxsXSMYvjoeCwA-32" value="EARLY_LEAVER" style="text;strokeColor=none;fillColor=none;align=left;verticalAlign=top;spacingLeft=4;spacingRight=4;overflow=hidden;rotatable=0;points=[[0,0.5],[1,0.5]];portConstraint=eastwest;whiteSpace=wrap;html=1;" parent="ZO2d8BOxsXSMYvjoeCwA-30" vertex="1">
          <mxGeometry y="64" width="160" height="26" as="geometry" />
        </mxCell>
        <mxCell id="ZO2d8BOxsXSMYvjoeCwA-33" value="MERCHANDISE_BUYER" style="text;strokeColor=none;fillColor=none;align=left;verticalAlign=top;spacingLeft=4;spacingRight=4;overflow=hidden;rotatable=0;points=[[0,0.5],[1,0.5]];portConstraint=eastwest;whiteSpace=wrap;html=1;" parent="ZO2d8BOxsXSMYvjoeCwA-30" vertex="1">
          <mxGeometry y="90" width="160" height="26" as="geometry" />
        </mxCell>
        <mxCell id="ZO2d8BOxsXSMYvjoeCwA-34" value="FOOD_AND_DRINK" style="text;strokeColor=none;fillColor=none;align=left;verticalAlign=top;spacingLeft=4;spacingRight=4;overflow=hidden;rotatable=0;points=[[0,0.5],[1,0.5]];portConstraint=eastwest;whiteSpace=wrap;html=1;" parent="ZO2d8BOxsXSMYvjoeCwA-30" vertex="1">
          <mxGeometry y="116" width="160" height="26" as="geometry" />
        </mxCell>
        <mxCell id="ZO2d8BOxsXSMYvjoeCwA-35" value="SOCIALIZING" style="text;strokeColor=none;fillColor=none;align=left;verticalAlign=top;spacingLeft=4;spacingRight=4;overflow=hidden;rotatable=0;points=[[0,0.5],[1,0.5]];portConstraint=eastwest;whiteSpace=wrap;html=1;" parent="ZO2d8BOxsXSMYvjoeCwA-30" vertex="1">
          <mxGeometry y="142" width="160" height="26" as="geometry" />
        </mxCell>
        <mxCell id="ZO2d8BOxsXSMYvjoeCwA-36" value="" style="line;strokeWidth=1;fillColor=none;align=left;verticalAlign=middle;spacingTop=-1;spacingLeft=3;spacingRight=3;rotatable=0;labelPosition=right;points=[];portConstraint=eastwest;strokeColor=inherit;" parent="ZO2d8BOxsXSMYvjoeCwA-30" vertex="1">
          <mxGeometry y="168" width="160" height="8" as="geometry" />
        </mxCell>
        <mxCell id="ZO2d8BOxsXSMYvjoeCwA-37" value="&amp;lt;&amp;lt;Enumeration&amp;gt;&amp;gt;&lt;br&gt;EmploymentType" style="swimlane;fontStyle=1;align=center;verticalAlign=top;childLayout=stackLayout;horizontal=1;startSize=38;horizontalStack=0;resizeParent=1;resizeParentMax=0;resizeLast=0;collapsible=1;marginBottom=0;whiteSpace=wrap;html=1;" parent="WIyWlLk6GJQsqaUBKTNV-1" vertex="1">
          <mxGeometry x="1030" y="993" width="160" height="176" as="geometry" />
        </mxCell>
        <mxCell id="ZO2d8BOxsXSMYvjoeCwA-38" value="STUDENT" style="text;strokeColor=none;fillColor=none;align=left;verticalAlign=top;spacingLeft=4;spacingRight=4;overflow=hidden;rotatable=0;points=[[0,0.5],[1,0.5]];portConstraint=eastwest;whiteSpace=wrap;html=1;" parent="ZO2d8BOxsXSMYvjoeCwA-37" vertex="1">
          <mxGeometry y="38" width="160" height="26" as="geometry" />
        </mxCell>
        <mxCell id="ZO2d8BOxsXSMYvjoeCwA-39" value="SEEKING_WORK" style="text;strokeColor=none;fillColor=none;align=left;verticalAlign=top;spacingLeft=4;spacingRight=4;overflow=hidden;rotatable=0;points=[[0,0.5],[1,0.5]];portConstraint=eastwest;whiteSpace=wrap;html=1;" parent="ZO2d8BOxsXSMYvjoeCwA-37" vertex="1">
          <mxGeometry y="64" width="160" height="26" as="geometry" />
        </mxCell>
        <mxCell id="ZO2d8BOxsXSMYvjoeCwA-40" value="EMPLOYED" style="text;strokeColor=none;fillColor=none;align=left;verticalAlign=top;spacingLeft=4;spacingRight=4;overflow=hidden;rotatable=0;points=[[0,0.5],[1,0.5]];portConstraint=eastwest;whiteSpace=wrap;html=1;" parent="ZO2d8BOxsXSMYvjoeCwA-37" vertex="1">
          <mxGeometry y="90" width="160" height="26" as="geometry" />
        </mxCell>
        <mxCell id="ZO2d8BOxsXSMYvjoeCwA-41" value="SELF_EMPLOYED" style="text;strokeColor=none;fillColor=none;align=left;verticalAlign=top;spacingLeft=4;spacingRight=4;overflow=hidden;rotatable=0;points=[[0,0.5],[1,0.5]];portConstraint=eastwest;whiteSpace=wrap;html=1;" parent="ZO2d8BOxsXSMYvjoeCwA-37" vertex="1">
          <mxGeometry y="116" width="160" height="26" as="geometry" />
        </mxCell>
        <mxCell id="ZO2d8BOxsXSMYvjoeCwA-42" value="RETIRED" style="text;strokeColor=none;fillColor=none;align=left;verticalAlign=top;spacingLeft=4;spacingRight=4;overflow=hidden;rotatable=0;points=[[0,0.5],[1,0.5]];portConstraint=eastwest;whiteSpace=wrap;html=1;" parent="ZO2d8BOxsXSMYvjoeCwA-37" vertex="1">
          <mxGeometry y="142" width="160" height="26" as="geometry" />
        </mxCell>
        <mxCell id="ZO2d8BOxsXSMYvjoeCwA-43" value="" style="line;strokeWidth=1;fillColor=none;align=left;verticalAlign=middle;spacingTop=-1;spacingLeft=3;spacingRight=3;rotatable=0;labelPosition=right;points=[];portConstraint=eastwest;strokeColor=inherit;" parent="ZO2d8BOxsXSMYvjoeCwA-37" vertex="1">
          <mxGeometry y="168" width="160" height="8" as="geometry" />
        </mxCell>
        <mxCell id="3BymgdsT1Dtf8qJvTMkg-0" value="Bar-Staff" style="swimlane;fontStyle=0;childLayout=stackLayout;horizontal=1;startSize=26;fillColor=none;horizontalStack=0;resizeParent=1;resizeParentMax=0;resizeLast=0;collapsible=1;marginBottom=0;whiteSpace=wrap;html=1;" vertex="1" parent="WIyWlLk6GJQsqaUBKTNV-1">
          <mxGeometry x="-690" y="790" width="140" height="52" as="geometry" />
        </mxCell>
        <mxCell id="3BymgdsT1Dtf8qJvTMkg-4" value="Eventstaff" style="swimlane;fontStyle=0;childLayout=stackLayout;horizontal=1;startSize=26;fillColor=none;horizontalStack=0;resizeParent=1;resizeParentMax=0;resizeLast=0;collapsible=1;marginBottom=0;whiteSpace=wrap;html=1;" vertex="1" parent="WIyWlLk6GJQsqaUBKTNV-1">
          <mxGeometry x="-370" y="524" width="160" height="200" as="geometry" />
        </mxCell>
        <mxCell id="3BymgdsT1Dtf8qJvTMkg-5" value="+shiftBegin : Time&lt;div&gt;&lt;br&gt;&lt;div&gt;&lt;br&gt;&lt;/div&gt;&lt;div&gt;&lt;br&gt;&lt;/div&gt;&lt;div&gt;&lt;br&gt;&lt;/div&gt;&lt;div&gt;&lt;span style=&quot;white-space: pre;&quot;&gt;&#x9;&lt;/span&gt;&lt;/div&gt;&lt;div&gt;&lt;br&gt;&lt;div&gt;&lt;br&gt;&lt;/div&gt;&lt;/div&gt;&lt;/div&gt;" style="text;strokeColor=none;fillColor=none;align=left;verticalAlign=top;spacingLeft=4;spacingRight=4;overflow=hidden;rotatable=0;points=[[0,0.5],[1,0.5]];portConstraint=eastwest;whiteSpace=wrap;html=1;" vertex="1" parent="3BymgdsT1Dtf8qJvTMkg-4">
          <mxGeometry y="26" width="160" height="26" as="geometry" />
        </mxCell>
        <mxCell id="3BymgdsT1Dtf8qJvTMkg-6" value="+ shiftEnd : Time" style="text;strokeColor=none;fillColor=none;align=left;verticalAlign=top;spacingLeft=4;spacingRight=4;overflow=hidden;rotatable=0;points=[[0,0.5],[1,0.5]];portConstraint=eastwest;whiteSpace=wrap;html=1;" vertex="1" parent="3BymgdsT1Dtf8qJvTMkg-4">
          <mxGeometry y="52" width="160" height="26" as="geometry" />
        </mxCell>
        <mxCell id="3BymgdsT1Dtf8qJvTMkg-7" value="+ ArrivalPos : coordinates&lt;div&gt;&lt;br&gt;&lt;/div&gt;&lt;div&gt;+ Transport : TransportationType&lt;/div&gt;&lt;div&gt;&lt;br&gt;&lt;/div&gt;&lt;div&gt;+ ArrivesIn : GroupSize&lt;/div&gt;&lt;div&gt;&lt;br&gt;&lt;/div&gt;&lt;div&gt;&lt;br&gt;&lt;div&gt;&lt;br&gt;&lt;/div&gt;&lt;/div&gt;" style="text;strokeColor=none;fillColor=none;align=left;verticalAlign=top;spacingLeft=4;spacingRight=4;overflow=hidden;rotatable=0;points=[[0,0.5],[1,0.5]];portConstraint=eastwest;whiteSpace=wrap;html=1;" vertex="1" parent="3BymgdsT1Dtf8qJvTMkg-4">
          <mxGeometry y="78" width="160" height="122" as="geometry" />
        </mxCell>
        <mxCell id="3BymgdsT1Dtf8qJvTMkg-18" value="" style="endArrow=classic;html=1;rounded=0;entryX=0.55;entryY=1.018;entryDx=0;entryDy=0;entryPerimeter=0;" edge="1" parent="3BymgdsT1Dtf8qJvTMkg-4" target="3BymgdsT1Dtf8qJvTMkg-7">
          <mxGeometry width="50" height="50" relative="1" as="geometry">
            <mxPoint x="81" y="266" as="sourcePoint" />
            <mxPoint x="160" y="166" as="targetPoint" />
          </mxGeometry>
        </mxCell>
        <mxCell id="3BymgdsT1Dtf8qJvTMkg-8" value="" style="endArrow=block;endSize=16;endFill=0;html=1;rounded=0;" edge="1" parent="WIyWlLk6GJQsqaUBKTNV-1">
          <mxGeometry width="160" relative="1" as="geometry">
            <mxPoint x="-210" y="575" as="sourcePoint" />
            <mxPoint x="330" y="529" as="targetPoint" />
          </mxGeometry>
        </mxCell>
        <mxCell id="3BymgdsT1Dtf8qJvTMkg-9" value="Private-Security" style="swimlane;fontStyle=0;childLayout=stackLayout;horizontal=1;startSize=26;fillColor=none;horizontalStack=0;resizeParent=1;resizeParentMax=0;resizeLast=0;collapsible=1;marginBottom=0;whiteSpace=wrap;html=1;" vertex="1" parent="WIyWlLk6GJQsqaUBKTNV-1">
          <mxGeometry x="-520" y="790" width="140" height="52" as="geometry" />
        </mxCell>
        <mxCell id="3BymgdsT1Dtf8qJvTMkg-10" value="Artist + Crew" style="swimlane;fontStyle=0;childLayout=stackLayout;horizontal=1;startSize=26;fillColor=none;horizontalStack=0;resizeParent=1;resizeParentMax=0;resizeLast=0;collapsible=1;marginBottom=0;whiteSpace=wrap;html=1;" vertex="1" parent="WIyWlLk6GJQsqaUBKTNV-1">
          <mxGeometry x="-340" y="790" width="140" height="52" as="geometry" />
        </mxCell>
        <mxCell id="3BymgdsT1Dtf8qJvTMkg-11" value="Garderobe" style="swimlane;fontStyle=0;childLayout=stackLayout;horizontal=1;startSize=26;fillColor=none;horizontalStack=0;resizeParent=1;resizeParentMax=0;resizeLast=0;collapsible=1;marginBottom=0;whiteSpace=wrap;html=1;" vertex="1" parent="WIyWlLk6GJQsqaUBKTNV-1">
          <mxGeometry x="-160" y="790" width="140" height="52" as="geometry" />
        </mxCell>
        <mxCell id="3BymgdsT1Dtf8qJvTMkg-12" value="" style="endArrow=classic;html=1;rounded=0;entryX=-0.005;entryY=0.12;entryDx=0;entryDy=0;entryPerimeter=0;" edge="1" parent="WIyWlLk6GJQsqaUBKTNV-1" target="3BymgdsT1Dtf8qJvTMkg-7">
          <mxGeometry width="50" height="50" relative="1" as="geometry">
            <mxPoint x="-610" y="790" as="sourcePoint" />
            <mxPoint x="-560" y="740" as="targetPoint" />
          </mxGeometry>
        </mxCell>
        <mxCell id="3BymgdsT1Dtf8qJvTMkg-15" value="" style="endArrow=classic;html=1;rounded=0;entryX=-0.005;entryY=0.723;entryDx=0;entryDy=0;entryPerimeter=0;" edge="1" parent="WIyWlLk6GJQsqaUBKTNV-1" target="3BymgdsT1Dtf8qJvTMkg-7">
          <mxGeometry width="50" height="50" relative="1" as="geometry">
            <mxPoint x="-450" y="790" as="sourcePoint" />
            <mxPoint x="-400" y="740" as="targetPoint" />
          </mxGeometry>
        </mxCell>
        <mxCell id="3BymgdsT1Dtf8qJvTMkg-17" value="" style="endArrow=classic;html=1;rounded=0;entryX=0.985;entryY=1.005;entryDx=0;entryDy=0;entryPerimeter=0;exitX=0.147;exitY=0.87;exitDx=0;exitDy=0;exitPerimeter=0;" edge="1" parent="WIyWlLk6GJQsqaUBKTNV-1" target="3BymgdsT1Dtf8qJvTMkg-7">
          <mxGeometry width="50" height="50" relative="1" as="geometry">
            <mxPoint x="-115.59000000000015" y="788.5999999999999" as="sourcePoint" />
            <mxPoint x="-31" y="692.5" as="targetPoint" />
          </mxGeometry>
        </mxCell>
        <mxCell id="3BymgdsT1Dtf8qJvTMkg-25" value="StadiumArea" style="swimlane;fontStyle=0;childLayout=stackLayout;horizontal=1;startSize=26;fillColor=none;horizontalStack=0;resizeParent=1;resizeParentMax=0;resizeLast=0;collapsible=1;marginBottom=0;whiteSpace=wrap;html=1;" vertex="1" parent="WIyWlLk6GJQsqaUBKTNV-1">
          <mxGeometry x="-365" y="243" width="140" height="78" as="geometry" />
        </mxCell>
        <mxCell id="3BymgdsT1Dtf8qJvTMkg-26" value="+ name" style="text;strokeColor=none;fillColor=none;align=left;verticalAlign=top;spacingLeft=4;spacingRight=4;overflow=hidden;rotatable=0;points=[[0,0.5],[1,0.5]];portConstraint=eastwest;whiteSpace=wrap;html=1;" vertex="1" parent="3BymgdsT1Dtf8qJvTMkg-25">
          <mxGeometry y="26" width="140" height="26" as="geometry" />
        </mxCell>
        <mxCell id="3BymgdsT1Dtf8qJvTMkg-27" value="+ coordinates" style="text;strokeColor=none;fillColor=none;align=left;verticalAlign=top;spacingLeft=4;spacingRight=4;overflow=hidden;rotatable=0;points=[[0,0.5],[1,0.5]];portConstraint=eastwest;whiteSpace=wrap;html=1;" vertex="1" parent="3BymgdsT1Dtf8qJvTMkg-25">
          <mxGeometry y="52" width="140" height="26" as="geometry" />
        </mxCell>
        <mxCell id="3BymgdsT1Dtf8qJvTMkg-29" value="" style="endArrow=classic;startArrow=classic;html=1;rounded=0;" edge="1" parent="WIyWlLk6GJQsqaUBKTNV-1">
          <mxGeometry width="50" height="50" relative="1" as="geometry">
            <mxPoint x="-300" y="520" as="sourcePoint" />
            <mxPoint x="-300" y="330" as="targetPoint" />
          </mxGeometry>
        </mxCell>
        <mxCell id="3BymgdsT1Dtf8qJvTMkg-30" value="*" style="text;html=1;align=center;verticalAlign=middle;resizable=0;points=[];autosize=1;strokeColor=none;fillColor=none;" vertex="1" parent="WIyWlLk6GJQsqaUBKTNV-1">
          <mxGeometry x="-290" y="494" width="30" height="30" as="geometry" />
        </mxCell>
        <mxCell id="3BymgdsT1Dtf8qJvTMkg-31" value="1" style="text;html=1;align=center;verticalAlign=middle;resizable=0;points=[];autosize=1;strokeColor=none;fillColor=none;" vertex="1" parent="WIyWlLk6GJQsqaUBKTNV-1">
          <mxGeometry x="-290" y="320" width="30" height="30" as="geometry" />
        </mxCell>
        <mxCell id="3BymgdsT1Dtf8qJvTMkg-32" value="many Staff members" style="text;html=1;align=center;verticalAlign=middle;resizable=0;points=[];autosize=1;strokeColor=none;fillColor=none;" vertex="1" parent="WIyWlLk6GJQsqaUBKTNV-1">
          <mxGeometry x="-300" y="340" width="130" height="30" as="geometry" />
        </mxCell>
        <mxCell id="3BymgdsT1Dtf8qJvTMkg-33" value="one Area" style="text;html=1;align=center;verticalAlign=middle;resizable=0;points=[];autosize=1;strokeColor=none;fillColor=none;" vertex="1" parent="WIyWlLk6GJQsqaUBKTNV-1">
          <mxGeometry x="-280" y="480" width="70" height="30" as="geometry" />
        </mxCell>
      </root>
    </mxGraphModel>
  </diagram>
</mxfile>
